<svg width="31" height="20" viewBox="0 0 31 20" fill="none" xmlns="http://www.w3.org/2000/svg">
<path d="M1.96798 1.28999C1.81782 1.46092 1.73283 1.69343 1.73166 1.93652C1.72969 2.18007 1.81508 2.41415 1.96798 2.58304L15.2383 17.8292C15.3869 18.0022 15.5895 18.0996 15.801 18.0996C16.0126 18.0996 16.2152 18.0022 16.3637 17.8292L29.6366 2.58305C29.7942 2.41369 29.8853 2.17803 29.8888 1.93017C29.8923 1.6821 29.8083 1.44329 29.6556 1.26782C29.5031 1.09259 29.2951 0.995853 29.0793 1.00014C28.8636 1.0042 28.6585 1.10883 28.5111 1.28992L15.801 15.8895L3.09396 1.28992C2.94499 1.11762 2.74243 1.02088 2.53104 1.02088C2.31985 1.02088 2.11729 1.11762 1.96832 1.28992L1.96798 1.28999Z" fill="white" stroke="white" stroke-width="2"/>
</svg>
